<svg width="33" height="34" viewBox="0 0 33 34" fill="none" xmlns="http://www.w3.org/2000/svg">
<path d="M16.5 2.7998C14.6943 2.7998 12.9063 3.15546 11.2381 3.84646C9.56988 4.53746 8.05409 5.55028 6.77728 6.82709C4.19866 9.40571 2.75 12.9031 2.75 16.5498C2.75 22.6273 6.69625 27.7835 12.155 29.6123C12.8425 29.7223 13.0625 29.296 13.0625 28.9248V26.601C9.25375 27.426 8.4425 24.7585 8.4425 24.7585C7.81 23.1635 6.91625 22.7373 6.91625 22.7373C5.665 21.8848 7.0125 21.9123 7.0125 21.9123C8.3875 22.0085 9.11625 23.3286 9.11625 23.3286C10.3125 25.4185 12.3338 24.7998 13.1175 24.4698C13.2413 23.576 13.5988 22.9711 13.9838 22.6273C10.9313 22.2836 7.7275 21.101 7.7275 15.8623C7.7275 14.3361 8.25 13.1123 9.14375 12.1361C9.00625 11.7923 8.525 10.3623 9.28125 8.50605C9.28125 8.50605 10.4363 8.1348 13.0625 9.90855C14.1488 9.60605 15.3313 9.4548 16.5 9.4548C17.6688 9.4548 18.8513 9.60605 19.9375 9.90855C22.5638 8.1348 23.7188 8.50605 23.7188 8.50605C24.475 10.3623 23.9938 11.7923 23.8563 12.1361C24.75 13.1123 25.2725 14.3361 25.2725 15.8623C25.2725 21.1148 22.055 22.2698 18.9888 22.6136C19.4838 23.0398 19.9375 23.8785 19.9375 25.1573V28.9248C19.9375 29.296 20.1575 29.736 20.8588 29.6123C26.3175 27.7698 30.25 22.6273 30.25 16.5498C30.25 14.7441 29.8944 12.9561 29.2034 11.2879C28.5123 9.61968 27.4995 8.10389 26.2227 6.82709C24.9459 5.55028 23.4301 4.53746 21.7619 3.84646C20.0937 3.15546 18.3057 2.7998 16.5 2.7998Z" fill="white"/>
</svg>
