<svg width="32" height="33" viewBox="0 0 32 33" fill="none" xmlns="http://www.w3.org/2000/svg">
<path d="M25.3333 4.5498C26.0406 4.5498 26.7189 4.83076 27.219 5.33085C27.719 5.83095 28 6.50923 28 7.21647V25.8831C28 26.5904 27.719 27.2687 27.219 27.7688C26.7189 28.2689 26.0406 28.5498 25.3333 28.5498H6.66667C5.95942 28.5498 5.28115 28.2689 4.78105 27.7688C4.28095 27.2687 4 26.5904 4 25.8831V7.21647C4 6.50923 4.28095 5.83095 4.78105 5.33085C5.28115 4.83076 5.95942 4.5498 6.66667 4.5498H25.3333ZM24.6667 25.2165V18.1498C24.6667 16.997 24.2087 15.8914 23.3936 15.0762C22.5784 14.2611 21.4728 13.8031 20.32 13.8031C19.1867 13.8031 17.8667 14.4965 17.2267 15.5365V14.0565H13.5067V25.2165H17.2267V18.6431C17.2267 17.6165 18.0533 16.7765 19.08 16.7765C19.5751 16.7765 20.0499 16.9731 20.3999 17.3232C20.75 17.6733 20.9467 18.1481 20.9467 18.6431V25.2165H24.6667ZM9.17333 11.9631C9.76742 11.9631 10.3372 11.7271 10.7573 11.3071C11.1773 10.887 11.4133 10.3172 11.4133 9.72314C11.4133 8.48314 10.4133 7.4698 9.17333 7.4698C8.57571 7.4698 8.00257 7.70721 7.57999 8.12979C7.1574 8.55237 6.92 9.12552 6.92 9.72314C6.92 10.9631 7.93333 11.9631 9.17333 11.9631ZM11.0267 25.2165V14.0565H7.33333V25.2165H11.0267Z" fill="white"/>
</svg>
