<svg width="22" height="23" viewBox="0 0 22 23" fill="none" xmlns="http://www.w3.org/2000/svg">
<path d="M1.62207 18.3401V17.4234H20.3771V18.3401H1.62207ZM4.2309 16.5068C3.80863 16.5068 3.45632 16.3653 3.17399 16.0823C2.89165 15.7994 2.75018 15.4471 2.74957 15.0254V6.07051C2.74957 5.64884 2.89104 5.29653 3.17399 5.01359C3.45693 4.73065 3.80893 4.58948 4.22999 4.59009H17.7692C18.1908 4.59009 18.5428 4.73126 18.8252 5.01359C19.1075 5.29592 19.249 5.64823 19.2496 6.07051V15.0263C19.2496 15.448 19.1081 15.8 18.8252 16.0823C18.5422 16.3647 18.1899 16.5061 17.7682 16.5068H4.2309ZM4.2309 15.5901H17.7692C17.9097 15.5901 18.039 15.5311 18.1569 15.4132C18.2748 15.2952 18.3335 15.166 18.3329 15.0254V6.07051C18.3329 5.92995 18.2742 5.8007 18.1569 5.68276C18.039 5.56481 17.9094 5.50584 17.7682 5.50584H4.2309C4.08974 5.50584 3.96018 5.56481 3.84224 5.68276C3.7249 5.80009 3.66624 5.92934 3.66624 6.07051V15.0263C3.66624 15.1669 3.7249 15.2958 3.84224 15.4132C3.95957 15.5305 4.08882 15.5895 4.22999 15.5901" fill="white"/>
</svg>
