<svg width="333" height="241" viewBox="0 0 333 241" fill="none" xmlns="http://www.w3.org/2000/svg">
<path d="M231.719 21.477C213.762 9.33508 192.842 2.31426 171.203 1.16723C149.563 0.0202049 128.02 4.79021 108.883 14.9659C89.7451 25.1415 73.735 40.3392 62.5687 58.9294C51.4024 77.5196 45.5011 98.8015 45.4973 120.493M98.1281 219.586C116.089 231.706 137.006 238.707 158.638 239.837C180.27 240.968 201.802 236.186 220.927 226.005C240.051 215.823 256.049 200.625 267.205 182.038C278.361 163.451 284.255 142.177 284.257 120.493M59.6619 120.493H93.1273L47.1135 166.554L1.09961 120.493H34.565H59.6619ZM272.537 120.493H239.072L285.086 74.4325L331.1 120.493H297.634H272.537Z" stroke="#2D2D2E" stroke-width="2" stroke-linecap="round" stroke-linejoin="round"/>
</svg>
