<svg width="285" height="285" viewBox="0 0 285 285" fill="none" xmlns="http://www.w3.org/2000/svg">
<path d="M114.202 263.743C65.681 280.115 25.2536 263.743 1 213.256" stroke="#2D2D2E" stroke-width="2" stroke-linecap="round" stroke-linejoin="round"/>
<path d="M114.196 284.007V238.133C114.196 229.671 116.799 222.313 120.988 215.663C123.875 211.106 121.894 204.626 116.7 203.211C73.6411 191.353 43.4443 172.321 43.4443 109.184C43.4443 92.77 48.8214 77.3465 58.2738 63.904C60.6228 60.5646 61.8114 58.8949 62.0944 57.395C62.3774 55.8668 61.8822 53.9 60.8916 49.938C56.8871 33.8636 57.156 16.7845 63.1557 1.4035C63.1557 1.4035 75.5655 -2.65755 103.824 14.9875C110.276 19.0202 113.502 21.0437 116.347 21.4965C119.191 21.9493 122.983 21.0012 130.568 19.1051C141.412 16.4166 152.549 15.0904 163.722 15.1573C174.894 15.1096 186.03 16.4403 196.876 19.1193C204.46 21.0154 208.267 21.9493 211.111 21.5106C213.941 21.0578 217.167 19.0344 223.62 15.0016C251.878 -2.6434 264.288 1.41765 264.288 1.41765C270.288 16.7987 270.556 33.8777 266.552 49.9521C265.561 53.9141 265.08 55.8951 265.363 57.395C265.646 58.8949 266.821 60.5788 269.17 63.9182C278.622 77.3607 283.999 92.7842 283.999 109.198C283.999 172.335 253.803 191.367 210.743 203.197C205.55 204.626 203.569 211.106 206.456 215.649C210.644 222.299 213.248 229.657 213.248 238.133V284.007" stroke="#2D2D2E" stroke-width="2" stroke-linecap="round" stroke-linejoin="round"/>
</svg>
