<svg width="33" height="34" viewBox="0 0 33 34" fill="none" xmlns="http://www.w3.org/2000/svg">
<path d="M16.5 5.5498C17.6756 5.5498 18.8815 5.58005 20.0502 5.62955L21.4307 5.69555L22.7521 5.77393L23.9896 5.8578L25.1199 5.9458C26.3466 6.03916 27.5011 6.5624 28.3799 7.42338C29.2588 8.28436 29.8056 9.42785 29.9241 10.6524L29.9791 11.2368L30.0823 12.4881C30.1785 13.7847 30.25 15.1982 30.25 16.5498C30.25 17.9014 30.1785 19.3149 30.0823 20.6116L29.9791 21.8628L29.9241 22.4472C29.8056 23.672 29.2585 24.8156 28.3794 25.6766C27.5003 26.5377 26.3455 27.0608 25.1185 27.1538L23.991 27.2404L22.7535 27.3257L21.4307 27.4041L20.0502 27.4701C18.8675 27.5213 17.6838 27.5479 16.5 27.5498C15.3162 27.5479 14.1325 27.5213 12.9497 27.4701L11.5692 27.4041L10.2479 27.3257L9.01038 27.2404L7.88013 27.1538C6.65337 27.0605 5.4989 26.5372 4.62006 25.6762C3.74122 24.8152 3.19439 23.6718 3.07587 22.4472L3.02088 21.8628L2.91775 20.6116C2.81302 19.2601 2.75707 17.9053 2.75 16.5498C2.75 15.1982 2.8215 13.7847 2.91775 12.4881L3.02088 11.2368L3.07587 10.6524C3.19434 9.42807 3.74098 8.28475 4.61954 7.4238C5.49809 6.56285 6.65224 6.03946 7.87875 5.9458L9.00763 5.8578L10.2451 5.77393L11.5679 5.69555L12.9484 5.62955C14.1316 5.5783 15.3157 5.55172 16.5 5.5498ZM16.5 8.2998C15.3656 8.2998 14.1982 8.33005 13.0625 8.37681L11.7178 8.44143L10.4266 8.51705L9.21388 8.59955L8.10288 8.68618C7.51877 8.72707 6.96807 8.97373 6.54866 9.38232C6.12924 9.79091 5.86827 10.335 5.81213 10.9178C5.65125 12.5802 5.5 14.6496 5.5 16.5498C5.5 18.4501 5.65125 20.5194 5.81213 22.1818C5.929 23.3808 6.8805 24.3131 8.10288 24.4134L9.21388 24.4987L10.4266 24.5812L11.7178 24.6582L13.0625 24.7228C14.1982 24.7696 15.3656 24.7998 16.5 24.7998C17.6344 24.7998 18.8018 24.7696 19.9375 24.7228L21.2822 24.6582L22.5734 24.5826L23.7861 24.5001L24.8971 24.4134C25.4812 24.3725 26.0319 24.1259 26.4513 23.7173C26.8708 23.3087 27.1317 22.7646 27.1879 22.1818C27.3488 20.5194 27.5 18.4501 27.5 16.5498C27.5 14.6496 27.3488 12.5802 27.1879 10.9178C27.1317 10.335 26.8708 9.79091 26.4513 9.38232C26.0319 8.97373 25.4812 8.72707 24.8971 8.68618L23.7861 8.60093L22.5734 8.51843L21.2822 8.44143L19.9375 8.37681C18.7923 8.32765 17.6462 8.30198 16.5 8.2998ZM13.75 13.2154C13.7499 13.081 13.7827 12.9487 13.8454 12.8298C13.9081 12.711 13.9989 12.6092 14.1099 12.5335C14.2209 12.4577 14.3487 12.4102 14.4823 12.3951C14.6158 12.38 14.751 12.3978 14.8761 12.4468L14.9875 12.5018L20.7625 15.8348C20.8775 15.9012 20.9748 15.9943 21.0461 16.1063C21.1174 16.2183 21.1606 16.3458 21.1721 16.4781C21.1836 16.6104 21.163 16.7435 21.112 16.8661C21.061 16.9887 20.9812 17.0971 20.8794 17.1823L20.7625 17.2648L14.9875 20.5992C14.8711 20.6666 14.74 20.7045 14.6057 20.7096C14.4713 20.7148 14.3377 20.687 14.2165 20.6287C14.0953 20.5704 13.9902 20.4834 13.9103 20.3752C13.8305 20.267 13.7782 20.1409 13.7582 20.0079L13.75 19.8842V13.2154Z" fill="white"/>
</svg>
